<svg width="157" height="30" viewBox="0 0 157 30" fill="none" xmlns="http://www.w3.org/2000/svg">
<circle cx="14.5283" cy="14.5283" r="14.5283" fill="#F77D27"/>
<path fill-rule="evenodd" clip-rule="evenodd" d="M21.4738 17.6003C20.2943 20.263 17.6285 22.1206 14.5287 22.1206C11.6992 22.1206 9.23124 20.5727 7.92532 18.2776H11.2482V18.6525L12.9353 17.7152L11.2482 16.6842V17.2465H7.43759C7.1139 16.4026 6.93652 15.4862 6.93652 14.5284C6.93652 10.3353 10.3357 6.93616 14.5287 6.93616C17.3195 6.93616 19.7586 8.44195 21.0779 10.6854H18.1843V10.123L16.4971 11.154L18.1843 12.0914V11.7164H21.5832C21.636 11.8486 21.6851 11.9827 21.7305 12.1184C22.6834 13.1224 24.4982 13.2679 25.8533 12.6737C26.5114 11.5938 27.7 10.8729 29.0571 10.8729C31.1277 10.8729 32.8063 12.5515 32.8063 14.6221C32.8063 16.6928 31.1277 18.3714 29.0571 18.3714C27.797 18.3714 26.6822 17.7498 26.0024 16.7965C24.0893 16.3093 22.8708 16.3093 21.4738 17.6003Z" fill="white"/>
<path d="M41.2059 20.6315C40.0283 20.6315 38.9607 20.3784 38.0033 19.8722C37.0568 19.3549 36.3084 18.645 35.7581 17.7426C35.2189 16.8291 34.9492 15.8001 34.9492 14.6555C34.9492 13.511 35.2189 12.4874 35.7581 11.585C36.3084 10.6715 37.0568 9.96167 38.0033 9.45542C38.9607 8.93816 40.0338 8.67953 41.2224 8.67953C42.2239 8.67953 43.1263 8.85562 43.9297 9.20779C44.7441 9.55997 45.4265 10.0662 45.9768 10.7266L44.2599 12.3114C43.4785 11.4089 42.51 10.9577 41.3544 10.9577C40.6391 10.9577 40.0008 11.1173 39.4395 11.4364C38.8782 11.7446 38.438 12.1793 38.1188 12.7406C37.8107 13.3019 37.6566 13.9402 37.6566 14.6555C37.6566 15.3709 37.8107 16.0092 38.1188 16.5705C38.438 17.1318 38.8782 17.572 39.4395 17.8912C40.0008 18.1993 40.6391 18.3534 41.3544 18.3534C42.51 18.3534 43.4785 17.8967 44.2599 16.9832L45.9768 18.568C45.4265 19.2393 44.7441 19.7511 43.9297 20.1033C43.1153 20.4554 42.2074 20.6315 41.2059 20.6315Z" fill="#F77E23"/>
<path d="M51.3559 20.5655C50.4204 20.5655 49.5785 20.3729 48.8301 19.9877C48.0927 19.5915 47.515 19.0467 47.0967 18.3534C46.6785 17.66 46.4694 16.8731 46.4694 15.9927C46.4694 15.1123 46.6785 14.3254 47.0967 13.632C47.515 12.9387 48.0927 12.3994 48.8301 12.0142C49.5785 11.618 50.4204 11.4199 51.3559 11.4199C52.2914 11.4199 53.1278 11.618 53.8651 12.0142C54.6025 12.3994 55.1803 12.9387 55.5985 13.632C56.0167 14.3254 56.2258 15.1123 56.2258 15.9927C56.2258 16.8731 56.0167 17.66 55.5985 18.3534C55.1803 19.0467 54.6025 19.5915 53.8651 19.9877C53.1278 20.3729 52.2914 20.5655 51.3559 20.5655ZM51.3559 18.4524C52.0162 18.4524 52.5555 18.2323 52.9737 17.7921C53.4029 17.3409 53.6175 16.7411 53.6175 15.9927C53.6175 15.2443 53.4029 14.65 52.9737 14.2098C52.5555 13.7586 52.0162 13.533 51.3559 13.533C50.6955 13.533 50.1508 13.7586 49.7216 14.2098C49.2923 14.65 49.0777 15.2443 49.0777 15.9927C49.0777 16.7411 49.2923 17.3409 49.7216 17.7921C50.1508 18.2323 50.6955 18.4524 51.3559 18.4524Z" fill="#F77E23"/>
<path d="M63.1803 11.4199C64.2809 11.4199 65.1668 11.7501 65.8382 12.4104C66.5205 13.0707 66.8617 14.0502 66.8617 15.3489V20.4334H64.2864V15.7451C64.2864 15.0407 64.1323 14.518 63.8242 14.1768C63.516 13.8246 63.0703 13.6485 62.487 13.6485C61.8377 13.6485 61.3204 13.8521 60.9352 14.2593C60.55 14.6555 60.3574 15.2498 60.3574 16.0422V20.4334H57.7821V11.552H60.2419V12.592C60.583 12.2178 61.0067 11.9317 61.513 11.7336C62.0192 11.5245 62.575 11.4199 63.1803 11.4199Z" fill="#F77E23"/>
<path d="M74.7594 20.0042C74.5062 20.1913 74.1926 20.3344 73.8184 20.4334C73.4552 20.5215 73.07 20.5655 72.6628 20.5655C71.6063 20.5655 70.7864 20.2959 70.2031 19.7566C69.6308 19.2173 69.3446 18.4249 69.3446 17.3794V13.7311H67.9744V11.7501H69.3446V9.58749H71.9199V11.7501H74.132V13.7311H71.9199V17.3464C71.9199 17.7206 72.0135 18.0122 72.2006 18.2213C72.3987 18.4194 72.6738 18.5185 73.026 18.5185C73.4332 18.5185 73.7799 18.4084 74.066 18.1883L74.7594 20.0042Z" fill="#F77E23"/>
<path d="M84.4657 16.0257C84.4657 16.0587 84.4492 16.2899 84.4162 16.7191H77.6973C77.8184 17.2693 78.1045 17.7041 78.5557 18.0232C79.007 18.3424 79.5682 18.502 80.2396 18.502C80.7018 18.502 81.109 18.4359 81.4612 18.3039C81.8244 18.1608 82.1601 17.9407 82.4682 17.6435L83.8384 19.1293C83.002 20.0868 81.7804 20.5655 80.1736 20.5655C79.1721 20.5655 78.2861 20.3729 77.5157 19.9877C76.7453 19.5915 76.151 19.0467 75.7328 18.3534C75.3146 17.66 75.1055 16.8731 75.1055 15.9927C75.1055 15.1233 75.3091 14.3419 75.7163 13.6485C76.1345 12.9442 76.7013 12.3994 77.4167 12.0142C78.143 11.618 78.9519 11.4199 79.8434 11.4199C80.7128 11.4199 81.4997 11.607 82.2041 11.9812C82.9084 12.3554 83.4587 12.8946 83.8549 13.599C84.2621 14.2923 84.4657 15.1013 84.4657 16.0257ZM79.8599 13.3679C79.2766 13.3679 78.7869 13.533 78.3907 13.8631C77.9945 14.1933 77.7523 14.6445 77.6643 15.2168H82.039C81.9509 14.6555 81.7088 14.2098 81.3126 13.8796C80.9164 13.5385 80.4322 13.3679 79.8599 13.3679Z" fill="#F77E23"/>
<path d="M91.4134 11.4199C92.5139 11.4199 93.3999 11.7501 94.0712 12.4104C94.7536 13.0707 95.0947 14.0502 95.0947 15.3489V20.4334H92.5194V15.7451C92.5194 15.0407 92.3654 14.518 92.0572 14.1768C91.7491 13.8246 91.3033 13.6485 90.72 13.6485C90.0707 13.6485 89.5535 13.8521 89.1683 14.2593C88.7831 14.6555 88.5905 15.2498 88.5905 16.0422V20.4334H86.0152V11.552H88.4749V12.592C88.8161 12.2178 89.2398 11.9317 89.746 11.7336C90.2523 11.5245 90.8081 11.4199 91.4134 11.4199Z" fill="#F77E23"/>
<path d="M102.992 20.0042C102.739 20.1913 102.426 20.3344 102.051 20.4334C101.688 20.5215 101.303 20.5655 100.896 20.5655C99.8393 20.5655 99.0194 20.2959 98.4361 19.7566C97.8638 19.2173 97.5777 18.4249 97.5777 17.3794V13.7311H96.2075V11.7501H97.5777V9.58749H100.153V11.7501H102.365V13.7311H100.153V17.3464C100.153 17.7206 100.247 18.0122 100.434 18.2213C100.632 18.4194 100.907 18.5185 101.259 18.5185C101.666 18.5185 102.013 18.4084 102.299 18.1883L102.992 20.0042Z" fill="#F77E23"/>
<path d="M104.273 11.552H106.848V20.4334H104.273V11.552ZM105.561 10.3138C105.087 10.3138 104.702 10.1763 104.405 9.90114C104.108 9.626 103.959 9.28483 103.959 8.87763C103.959 8.47042 104.108 8.12925 104.405 7.85411C104.702 7.57898 105.087 7.44141 105.561 7.44141C106.034 7.44141 106.419 7.57347 106.716 7.83761C107.013 8.10174 107.162 8.4319 107.162 8.8281C107.162 9.25732 107.013 9.615 106.716 9.90114C106.419 10.1763 106.034 10.3138 105.561 10.3138Z" fill="#F77E23"/>
<path d="M113.299 20.5655C112.364 20.5655 111.522 20.3729 110.774 19.9877C110.036 19.5915 109.458 19.0467 109.04 18.3534C108.622 17.66 108.413 16.8731 108.413 15.9927C108.413 15.1123 108.622 14.3254 109.04 13.632C109.458 12.9387 110.036 12.3994 110.774 12.0142C111.522 11.618 112.364 11.4199 113.299 11.4199C114.235 11.4199 115.071 11.618 115.809 12.0142C116.546 12.3994 117.124 12.9387 117.542 13.632C117.96 14.3254 118.169 15.1123 118.169 15.9927C118.169 16.8731 117.96 17.66 117.542 18.3534C117.124 19.0467 116.546 19.5915 115.809 19.9877C115.071 20.3729 114.235 20.5655 113.299 20.5655ZM113.299 18.4524C113.96 18.4524 114.499 18.2323 114.917 17.7921C115.346 17.3409 115.561 16.7411 115.561 15.9927C115.561 15.2443 115.346 14.65 114.917 14.2098C114.499 13.7586 113.96 13.533 113.299 13.533C112.639 13.533 112.094 13.7586 111.665 14.2098C111.236 14.65 111.021 15.2443 111.021 15.9927C111.021 16.7411 111.236 17.3409 111.665 17.7921C112.094 18.2323 112.639 18.4524 113.299 18.4524Z" fill="#F77E23"/>
<path d="M125.124 11.4199C126.224 11.4199 127.11 11.7501 127.782 12.4104C128.464 13.0707 128.805 14.0502 128.805 15.3489V20.4334H126.23V15.7451C126.23 15.0407 126.076 14.518 125.768 14.1768C125.459 13.8246 125.014 13.6485 124.43 13.6485C123.781 13.6485 123.264 13.8521 122.879 14.2593C122.494 14.6555 122.301 15.2498 122.301 16.0422V20.4334H119.726V11.552H122.185V12.592C122.527 12.2178 122.95 11.9317 123.456 11.7336C123.963 11.5245 124.519 11.4199 125.124 11.4199Z" fill="#F77E23"/>
<path d="M134.557 11.4199C135.932 11.4199 136.989 11.7501 137.726 12.4104C138.464 13.0597 138.832 14.0447 138.832 15.3654V20.4334H136.422V19.3274C135.938 20.1528 135.036 20.5655 133.715 20.5655C133.033 20.5655 132.438 20.4499 131.932 20.2188C131.437 19.9877 131.057 19.6685 130.793 19.2613C130.529 18.8541 130.397 18.3919 130.397 17.8746C130.397 17.0492 130.705 16.3999 131.321 15.9267C131.948 15.4534 132.911 15.2168 134.21 15.2168H136.257C136.257 14.6555 136.087 14.2263 135.745 13.9292C135.404 13.621 134.892 13.4669 134.21 13.4669C133.737 13.4669 133.269 13.544 132.807 13.698C132.356 13.8411 131.97 14.0392 131.651 14.2923L130.727 12.4929C131.211 12.1518 131.789 11.8876 132.46 11.7005C133.143 11.5135 133.841 11.4199 134.557 11.4199ZM134.359 18.8321C134.799 18.8321 135.19 18.7331 135.531 18.535C135.872 18.3259 136.114 18.0232 136.257 17.627V16.7191H134.491C133.434 16.7191 132.906 17.0657 132.906 17.7591C132.906 18.0893 133.033 18.3534 133.286 18.5515C133.55 18.7386 133.907 18.8321 134.359 18.8321Z" fill="#F77E23"/>
<path d="M143.458 12.7241C143.766 12.2948 144.179 11.9702 144.696 11.7501C145.224 11.53 145.83 11.4199 146.512 11.4199V13.7971C146.226 13.7751 146.033 13.7641 145.934 13.7641C145.197 13.7641 144.619 13.9732 144.201 14.3914C143.782 14.7986 143.573 15.4149 143.573 16.2403V20.4334H140.998V11.552H143.458V12.7241Z" fill="#F77E23"/>
<path d="M157 11.552L152.988 20.9782C152.581 22.0017 152.075 22.7226 151.47 23.1408C150.875 23.559 150.154 23.7681 149.307 23.7681C148.845 23.7681 148.388 23.6966 147.937 23.5535C147.486 23.4104 147.117 23.2123 146.831 22.9592L147.772 21.1268C147.97 21.3029 148.195 21.4404 148.449 21.5395C148.713 21.6385 148.971 21.6881 149.224 21.6881C149.577 21.6881 149.863 21.6 150.083 21.4239C150.303 21.2588 150.501 20.9782 150.677 20.582L150.71 20.4995L146.864 11.552H149.522L152.014 17.5775L154.524 11.552H157Z" fill="#F77E23"/>
</svg>
