<svg width="20" height="20" viewBox="0 0 20 20" fill="none" xmlns="http://www.w3.org/2000/svg">
<g clip-path="url(#clip0)">
<path d="M14.6122 10.3701C12.1288 10.3701 10.1084 12.3905 10.1084 14.8739C10.1084 17.3574 12.1288 19.3778 14.6122 19.3778C17.1165 19.3778 19.1539 17.3574 19.1539 14.8739C19.1539 12.3905 17.1165 10.3701 14.6122 10.3701ZM15.9945 14.3291L14.4806 16.1457C14.3721 16.276 14.2119 16.35 14.0446 16.35C14.0228 16.35 14.001 16.3487 13.979 16.3462C13.7887 16.3241 13.6224 16.2075 13.5367 16.0362L12.9312 14.825C12.7909 14.5446 12.9046 14.2036 13.185 14.0634C13.4655 13.9231 13.8065 14.0368 13.9467 14.3173L14.1641 14.752L15.1223 13.6022C15.323 13.3613 15.681 13.3288 15.9218 13.5295C16.1627 13.7302 16.1953 14.0882 15.9945 14.3291Z" fill="#F4D067"/>
<path d="M14.3674 3.23417L12.0639 0.852095C12.0628 0.850959 12.0617 0.849786 12.0606 0.848651C11.5303 0.309326 10.7923 0 10.036 0H2.72803C1.78893 0 1.0249 0.764024 1.0249 1.70313V16.4257C1.0249 17.3648 1.78893 18.1289 2.72803 18.1289H10.0095C9.35688 17.2087 8.97284 16.0854 8.97284 14.874C8.97284 11.7645 11.5026 9.23475 14.6121 9.23475C14.8037 9.23475 14.993 9.24436 15.1798 9.26287V5.22217C15.1798 4.47397 14.8913 3.76808 14.3674 3.23417ZM7.04263 12.6789H4.01484C3.70131 12.6789 3.44713 12.4247 3.44713 12.1111C3.44713 11.7976 3.70131 11.5434 4.01484 11.5434H7.04263C7.35615 11.5434 7.61034 11.7976 7.61034 12.1111C7.61034 12.4247 7.35615 12.6789 7.04263 12.6789ZM7.04263 9.65107H4.01484C3.70131 9.65107 3.44713 9.39688 3.44713 9.08336C3.44713 8.76983 3.70131 8.51565 4.01484 8.51565H7.04263C7.35615 8.51565 7.61034 8.76983 7.61034 9.08336C7.61034 9.39688 7.35615 9.65107 7.04263 9.65107ZM7.04263 6.62328H4.01484C3.70131 6.62328 3.44713 6.3691 3.44713 6.05557C3.44713 5.74204 3.70131 5.48786 4.01484 5.48786H7.04263C7.35615 5.48786 7.61034 5.74204 7.61034 6.05557C7.61034 6.3691 7.35615 6.62328 7.04263 6.62328ZM10.676 9.65107H10.0704C9.75688 9.65107 9.5027 9.39688 9.5027 9.08336C9.5027 8.76983 9.75688 8.51565 10.0704 8.51565H10.676C10.9895 8.51565 11.2437 8.76983 11.2437 9.08336C11.2437 9.39688 10.9895 9.65107 10.676 9.65107ZM10.676 6.62328H10.0704C9.75688 6.62328 9.5027 6.3691 9.5027 6.05557C9.5027 5.74204 9.75688 5.48786 10.0704 5.48786H10.676C10.9895 5.48786 11.2437 5.74204 11.2437 6.05557C11.2437 6.3691 10.9895 6.62328 10.676 6.62328Z" fill="#F4D067"/>
</g>
<defs>
<clipPath id="clip0">
<rect width="19.3778" height="19.3778" fill="white" transform="translate(0.399902)"/>
</clipPath>
</defs>
</svg>
