<svg width="25" height="31" viewBox="0 0 25 31" fill="none" xmlns="http://www.w3.org/2000/svg">
<path d="M20.3305 16.2C20.2965 12.4204 23.4252 10.5817 23.5682 10.4961C21.7963 7.9127 19.0499 7.55973 18.0848 7.53158C15.7782 7.28884 13.5407 8.91182 12.3657 8.91182C11.1673 8.91182 9.35783 7.55504 7.40768 7.59491C4.89816 7.63361 2.55047 9.08654 1.26288 11.3428C-1.39439 15.9432 0.587424 22.7036 3.13329 26.4221C4.40681 28.2433 5.89493 30.2767 7.84274 30.2052C9.74833 30.1266 10.4601 28.9903 12.7597 28.9903C15.0382 28.9903 15.7067 30.2052 17.6932 30.1594C19.7383 30.1266 21.0259 28.3301 22.2549 26.4925C23.7266 24.4051 24.3176 22.3495 24.341 22.2439C24.293 22.2275 20.3692 20.73 20.3305 16.2Z" fill="white"/>
<path d="M16.5781 5.08509C17.6031 3.80336 18.3043 2.0596 18.1097 0.290039C16.6262 0.355709 14.7711 1.31613 13.7028 2.56971C12.7576 3.67437 11.9133 5.48497 12.1314 7.18769C13.7977 7.31199 15.5087 6.34688 16.5781 5.08509Z" fill="white"/>
</svg>
