<svg width="211" height="39" viewBox="0 0 211 39" fill="none" xmlns="http://www.w3.org/2000/svg">
<ellipse cx="19.5253" cy="19.5" rx="19.5253" ry="19.5" fill="#F77D27"/>
<path fill-rule="evenodd" clip-rule="evenodd" d="M28.8596 23.6232C27.2744 27.1971 23.6917 29.6903 19.5258 29.6903C15.7231 29.6903 12.4063 27.6128 10.6512 24.5322H15.117V25.0355L17.3844 23.7774L15.117 22.3935V23.1484H9.99568C9.56065 22.0156 9.32227 20.7856 9.32227 19.5C9.32227 13.8721 13.8906 9.30969 19.5258 9.30969C23.2765 9.30969 26.5546 11.3308 28.3276 14.3419H24.4386V13.5871L22.1712 14.971L24.4386 16.229V15.7258H29.0067C29.0776 15.9033 29.1436 16.0832 29.2046 16.2654C30.4852 17.6129 32.9243 17.8082 34.7454 17.0106C35.6299 15.5613 37.2273 14.5936 39.0512 14.5936C41.834 14.5936 44.09 16.8466 44.09 19.6258C44.09 22.4051 41.834 24.6581 39.0512 24.6581C37.3577 24.6581 35.8594 23.8238 34.9458 22.5443C32.3748 21.8903 30.7371 21.8903 28.8596 23.6232Z" fill="white"/>
<path d="M55.3783 27.6917C53.7957 27.6917 52.361 27.3519 51.0742 26.6724C49.8022 25.9781 48.7964 25.0254 48.0569 23.8141C47.3321 22.588 46.9697 21.2069 46.9697 19.6706C46.9697 18.1344 47.3321 16.7606 48.0569 15.5493C48.7964 14.3233 49.8022 13.3705 51.0742 12.691C52.361 11.9967 53.8031 11.6496 55.4005 11.6496C56.7465 11.6496 57.9593 11.886 59.0391 12.3586C60.1336 12.8313 61.0506 13.5108 61.7902 14.3971L59.4828 16.5243C58.4327 15.313 57.1311 14.7073 55.578 14.7073C54.6166 14.7073 53.7587 14.9215 53.0044 15.3499C52.2501 15.7635 51.6584 16.347 51.2295 17.1004C50.8154 17.8537 50.6083 18.7105 50.6083 19.6706C50.6083 20.6308 50.8154 21.4875 51.2295 22.2409C51.6584 22.9943 52.2501 23.5851 53.0044 24.0135C53.7587 24.4271 54.6166 24.6339 55.578 24.6339C57.1311 24.6339 58.4327 24.0209 59.4828 22.7948L61.7902 24.922C61.0506 25.823 60.1336 26.5099 59.0391 26.9826C57.9446 27.4553 56.7243 27.6917 55.3783 27.6917Z" fill="#F77E23"/>
<path d="M69.0194 27.603C67.7622 27.603 66.6307 27.3445 65.6249 26.8275C64.634 26.2957 63.8574 25.5645 63.2954 24.6339C62.7333 23.7033 62.4523 22.6471 62.4523 21.4654C62.4523 20.2837 62.7333 19.2275 63.2954 18.2969C63.8574 17.3662 64.634 16.6424 65.6249 16.1254C66.6307 15.5936 67.7622 15.3278 69.0194 15.3278C70.2767 15.3278 71.4008 15.5936 72.3918 16.1254C73.3828 16.6424 74.1593 17.3662 74.7213 18.2969C75.2834 19.2275 75.5644 20.2837 75.5644 21.4654C75.5644 22.6471 75.2834 23.7033 74.7213 24.6339C74.1593 25.5645 73.3828 26.2957 72.3918 26.8275C71.4008 27.3445 70.2767 27.603 69.0194 27.603ZM69.0194 24.7669C69.9069 24.7669 70.6317 24.4714 71.1937 23.8806C71.7705 23.2749 72.059 22.4699 72.059 21.4654C72.059 20.4609 71.7705 19.6632 71.1937 19.0724C70.6317 18.4667 69.9069 18.1639 69.0194 18.1639C68.132 18.1639 67.3998 18.4667 66.823 19.0724C66.2462 19.6632 65.9577 20.4609 65.9577 21.4654C65.9577 22.4699 66.2462 23.2749 66.823 23.8806C67.3998 24.4714 68.132 24.7669 69.0194 24.7669Z" fill="#F77E23"/>
<path d="M84.9109 15.3278C86.39 15.3278 87.5807 15.7709 88.4829 16.6572C89.3999 17.5435 89.8585 18.8582 89.8585 20.6012V27.4258H86.3974V21.133C86.3974 20.1876 86.1903 19.486 85.7762 19.0281C85.362 18.5554 84.763 18.319 83.9791 18.319C83.1064 18.319 82.4113 18.5923 81.8936 19.1389C81.3759 19.6706 81.1171 20.4683 81.1171 21.5319V27.4258H77.656V15.505H80.9617V16.9009C81.4203 16.3987 81.9897 16.0146 82.6701 15.7488C83.3505 15.4681 84.0974 15.3278 84.9109 15.3278Z" fill="#F77E23"/>
<path d="M100.473 26.8497C100.132 27.1008 99.7108 27.2928 99.2079 27.4258C98.7198 27.5439 98.2021 27.603 97.6549 27.603C96.2349 27.603 95.133 27.2411 94.3491 26.5173C93.58 25.7935 93.1954 24.7299 93.1954 23.3266V18.4298H91.3539V15.7709H93.1954V12.8683H96.6565V15.7709H99.6294V18.4298H96.6565V23.2823C96.6565 23.7845 96.7822 24.176 97.0336 24.4567C97.2999 24.7225 97.6697 24.8555 98.143 24.8555C98.6902 24.8555 99.1561 24.7078 99.5407 24.4123L100.473 26.8497Z" fill="#F77E23"/>
<path d="M113.517 21.5097C113.517 21.554 113.495 21.8642 113.451 22.4403H104.421C104.584 23.1789 104.968 23.7624 105.575 24.1908C106.181 24.6191 106.935 24.8333 107.838 24.8333C108.459 24.8333 109.006 24.7447 109.479 24.5674C109.968 24.3754 110.419 24.08 110.833 23.6811L112.674 25.6753C111.55 26.9605 109.908 27.603 107.749 27.603C106.403 27.603 105.212 27.3445 104.177 26.8275C103.142 26.2957 102.343 25.5645 101.781 24.6339C101.219 23.7033 100.938 22.6471 100.938 21.4654C100.938 20.2984 101.211 19.2496 101.759 18.319C102.321 17.3736 103.082 16.6424 104.044 16.1254C105.02 15.5936 106.107 15.3278 107.305 15.3278C108.474 15.3278 109.531 15.5789 110.478 16.0811C111.424 16.5834 112.164 17.3072 112.696 18.2526C113.244 19.1832 113.517 20.2689 113.517 21.5097ZM107.327 17.9423C106.543 17.9423 105.885 18.1639 105.353 18.6071C104.82 19.0502 104.495 19.6559 104.377 20.424H110.256C110.138 19.6706 109.812 19.0724 109.28 18.6292C108.747 18.1713 108.097 17.9423 107.327 17.9423Z" fill="#F77E23"/>
<path d="M122.855 15.3278C124.334 15.3278 125.524 15.7709 126.427 16.6572C127.344 17.5435 127.802 18.8582 127.802 20.6012V27.4258H124.341V21.133C124.341 20.1876 124.134 19.486 123.72 19.0281C123.306 18.5554 122.707 18.319 121.923 18.319C121.05 18.319 120.355 18.5923 119.837 19.1389C119.32 19.6706 119.061 20.4683 119.061 21.5319V27.4258H115.6V15.505H118.906V16.9009C119.364 16.3987 119.933 16.0146 120.614 15.7488C121.294 15.4681 122.041 15.3278 122.855 15.3278Z" fill="#F77E23"/>
<path d="M138.416 26.8497C138.076 27.1008 137.655 27.2928 137.152 27.4258C136.664 27.5439 136.146 27.603 135.599 27.603C134.179 27.603 133.077 27.2411 132.293 26.5173C131.524 25.7935 131.139 24.7299 131.139 23.3266V18.4298H129.298V15.7709H131.139V12.8683H134.6V15.7709H137.573V18.4298H134.6V23.2823C134.6 23.7845 134.726 24.176 134.977 24.4567C135.244 24.7225 135.613 24.8555 136.087 24.8555C136.634 24.8555 137.1 24.7078 137.484 24.4123L138.416 26.8497Z" fill="#F77E23"/>
<path d="M140.137 15.505H143.598V27.4258H140.137V15.505ZM141.868 13.8432C141.232 13.8432 140.714 13.6586 140.315 13.2893C139.915 12.92 139.716 12.4621 139.716 11.9155C139.716 11.3689 139.915 10.911 140.315 10.5417C140.714 10.1724 141.232 9.98779 141.868 9.98779C142.504 9.98779 143.022 10.1651 143.421 10.5196C143.82 10.8741 144.02 11.3172 144.02 11.849C144.02 12.4251 143.82 12.9052 143.421 13.2893C143.022 13.6586 142.504 13.8432 141.868 13.8432Z" fill="#F77E23"/>
<path d="M152.268 27.603C151.011 27.603 149.88 27.3445 148.874 26.8275C147.883 26.2957 147.106 25.5645 146.544 24.6339C145.982 23.7033 145.701 22.6471 145.701 21.4654C145.701 20.2837 145.982 19.2275 146.544 18.2969C147.106 17.3662 147.883 16.6424 148.874 16.1254C149.88 15.5936 151.011 15.3278 152.268 15.3278C153.526 15.3278 154.65 15.5936 155.641 16.1254C156.632 16.6424 157.408 17.3662 157.97 18.2969C158.532 19.2275 158.813 20.2837 158.813 21.4654C158.813 22.6471 158.532 23.7033 157.97 24.6339C157.408 25.5645 156.632 26.2957 155.641 26.8275C154.65 27.3445 153.526 27.603 152.268 27.603ZM152.268 24.7669C153.156 24.7669 153.881 24.4714 154.443 23.8806C155.019 23.2749 155.308 22.4699 155.308 21.4654C155.308 20.4609 155.019 19.6632 154.443 19.0724C153.881 18.4667 153.156 18.1639 152.268 18.1639C151.381 18.1639 150.649 18.4667 150.072 19.0724C149.495 19.6632 149.207 20.4609 149.207 21.4654C149.207 22.4699 149.495 23.2749 150.072 23.8806C150.649 24.4714 151.381 24.7669 152.268 24.7669Z" fill="#F77E23"/>
<path d="M168.16 15.3278C169.639 15.3278 170.83 15.7709 171.732 16.6572C172.649 17.5435 173.107 18.8582 173.107 20.6012V27.4258H169.646V21.133C169.646 20.1876 169.439 19.486 169.025 19.0281C168.611 18.5554 168.012 18.319 167.228 18.319C166.355 18.319 165.66 18.5923 165.142 19.1389C164.625 19.6706 164.366 20.4683 164.366 21.5319V27.4258H160.905V15.505H164.211V16.9009C164.669 16.3987 165.239 16.0146 165.919 15.7488C166.599 15.4681 167.346 15.3278 168.16 15.3278Z" fill="#F77E23"/>
<path d="M180.837 15.3278C182.686 15.3278 184.106 15.7709 185.097 16.6572C186.088 17.5287 186.583 18.8508 186.583 20.6234V27.4258H183.344V25.9412C182.693 27.0491 181.481 27.603 179.706 27.603C178.789 27.603 177.99 27.4479 177.31 27.1377C176.644 26.8275 176.134 26.3991 175.779 25.8526C175.424 25.306 175.246 24.6856 175.246 23.9913C175.246 22.8835 175.66 22.0119 176.489 21.3768C177.332 20.7416 178.626 20.424 180.371 20.424H183.122C183.122 19.6706 182.893 19.0945 182.435 18.6957C181.976 18.2821 181.288 18.0753 180.371 18.0753C179.735 18.0753 179.107 18.1787 178.485 18.3855C177.879 18.5775 177.361 18.8434 176.932 19.1832L175.69 16.768C176.341 16.3101 177.117 15.9556 178.02 15.7044C178.937 15.4533 179.876 15.3278 180.837 15.3278ZM180.571 25.2765C181.163 25.2765 181.688 25.1435 182.146 24.8777C182.605 24.597 182.93 24.1908 183.122 23.659V22.4403H180.748C179.329 22.4403 178.619 22.9056 178.619 23.8362C178.619 24.2794 178.789 24.6339 179.129 24.8998C179.484 25.1509 179.965 25.2765 180.571 25.2765Z" fill="#F77E23"/>
<path d="M192.8 17.0782C193.214 16.5021 193.769 16.0663 194.464 15.7709C195.174 15.4755 195.987 15.3278 196.904 15.3278V18.5184C196.52 18.4889 196.261 18.4741 196.128 18.4741C195.137 18.4741 194.36 18.7548 193.798 19.3161C193.236 19.8627 192.955 20.6899 192.955 21.7978V27.4258H189.494V15.505H192.8V17.0782Z" fill="#F77E23"/>
<path d="M210.999 15.505L205.608 28.157C205.061 29.5307 204.381 30.4983 203.567 31.0596C202.768 31.6209 201.8 31.9016 200.661 31.9016C200.039 31.9016 199.426 31.8056 198.819 31.6135C198.213 31.4215 197.717 31.1556 197.333 30.8159L198.597 28.3564C198.864 28.5927 199.167 28.7774 199.507 28.9103C199.862 29.0433 200.21 29.1097 200.55 29.1097C201.023 29.1097 201.408 28.9916 201.703 28.7552C201.999 28.5336 202.265 28.157 202.502 27.6252L202.546 27.5144L197.377 15.505H200.949L204.299 23.5925L207.672 15.505H210.999Z" fill="#F77E23"/>
</svg>
