<svg width="20" height="20" viewBox="0 0 20 20" fill="none" xmlns="http://www.w3.org/2000/svg">
<path d="M9.5693 0C4.28062 0 0 4.3334 0 9.68891C0 15.0437 4.27991 19.3778 9.5693 19.3778C14.858 19.3778 19.1386 15.0444 19.1386 9.68891C19.1386 4.33412 14.8587 0 9.5693 0Z" fill="#F4D067"/>
<path d="M9.56951 4.86328C7.9206 4.86328 6.5791 6.22155 6.5791 7.89107C6.5791 8.30913 6.9138 8.64801 7.3267 8.64801C7.7396 8.64801 8.0743 8.30913 8.0743 7.89107C8.0743 7.05631 8.74505 6.37717 9.56951 6.37717C10.394 6.37717 11.0647 7.05631 11.0647 7.89107C11.0647 8.72583 10.394 9.40496 9.56951 9.40496C9.15661 9.40496 8.82191 9.74384 8.82191 10.1619V12.0543C8.82191 12.4723 9.15661 12.8112 9.56951 12.8112C9.98241 12.8112 10.3171 12.4723 10.3171 12.0543V10.8231C11.6055 10.4861 12.5599 9.29933 12.5599 7.89107C12.5599 6.22155 11.2184 4.86328 9.56951 4.86328Z" fill="white"/>
<path d="M9.56927 15.2713C10.0854 15.2713 10.5038 14.8477 10.5038 14.3251C10.5038 13.8025 10.0854 13.3789 9.56927 13.3789C9.05316 13.3789 8.63477 13.8025 8.63477 14.3251C8.63477 14.8477 9.05316 15.2713 9.56927 15.2713Z" fill="white"/>
</svg>
